<?xml version="1.0" encoding="utf-8"?>
<!-- Generator: Adobe Illustrator 16.0.0, SVG Export Plug-In . SVG Version: 6.00 Build 0)  -->
<!DOCTYPE svg PUBLIC "-//W3C//DTD SVG 1.1//EN" "http://www.w3.org/Graphics/SVG/1.1/DTD/svg11.dtd">
<svg version="1.1" id="Camada_1" xmlns="http://www.w3.org/2000/svg" xmlns:xlink="http://www.w3.org/1999/xlink" x="0px" y="0px"
	 width="16px" height="16px" viewBox="0 0 16 16" style="enable-background:new 0 0 16 16;" xml:space="preserve">
<style type="text/css">
<![CDATA[
	.st0{fill:#F5B717;}
]]>
</style>
<path class="st0" d="M12.93,0.113H3.071c-1.633,0-2.958,1.325-2.958,2.958v9.857c0,1.633,1.324,2.958,2.958,2.958h9.859
	c1.633,0,2.957-1.325,2.957-2.958V3.071C15.887,1.438,14.562,0.113,12.93,0.113z M10.725,10.913c-0.18,0.311-0.422,0.574-0.723,0.79
	c-0.303,0.216-0.656,0.378-1.06,0.486c-0.406,0.108-0.829,0.162-1.27,0.162c-0.703,0-1.306-0.108-1.81-0.324
	c-0.505-0.216-0.919-0.514-1.243-0.892l1.054-1.459c0.261,0.243,0.542,0.439,0.844,0.588s0.606,0.223,0.912,0.223
	c0.378,0,0.679-0.067,0.905-0.202c0.226-0.136,0.338-0.338,0.338-0.608c0-0.162-0.026-0.306-0.081-0.433
	C8.536,9.118,8.432,9.011,8.28,8.92C8.126,8.83,7.91,8.763,7.631,8.718C7.352,8.673,6.987,8.65,6.537,8.65V7.029
	c0.359,0,0.66-0.022,0.898-0.067c0.238-0.045,0.43-0.11,0.574-0.196c0.144-0.085,0.245-0.187,0.304-0.304S8.401,6.21,8.401,6.057
	c0-0.522-0.297-0.783-0.891-0.783c-0.289,0-0.545,0.059-0.77,0.175C6.515,5.565,6.267,5.741,5.997,5.976L4.835,4.57
	c0.423-0.351,0.86-0.623,1.311-0.817c0.45-0.193,0.941-0.29,1.472-0.29c0.945,0,1.699,0.209,2.263,0.628
	c0.562,0.419,0.844,1.016,0.844,1.79c0,0.829-0.459,1.445-1.379,1.851v0.055c0.486,0.152,0.883,0.398,1.189,0.735
	c0.307,0.338,0.459,0.777,0.459,1.317C10.994,10.244,10.904,10.603,10.725,10.913z"/>
</svg>
