<?xml version="1.0" encoding="utf-8"?>
<!-- Generator: Adobe Illustrator 16.0.0, SVG Export Plug-In . SVG Version: 6.00 Build 0)  -->
<!DOCTYPE svg PUBLIC "-//W3C//DTD SVG 1.1//EN" "http://www.w3.org/Graphics/SVG/1.1/DTD/svg11.dtd">
<svg version="1.1" id="Camada_1" xmlns="http://www.w3.org/2000/svg" xmlns:xlink="http://www.w3.org/1999/xlink" x="0px" y="0px"
	 width="16px" height="16px" viewBox="0 0 16 16" style="enable-background:new 0 0 16 16;" xml:space="preserve">
<style type="text/css">
<![CDATA[
	.st0{fill:#1B75BB;}
]]>
</style>
<path class="st0" d="M12.929,0.113H3.07c-1.633,0-2.957,1.325-2.957,2.958v9.857c0,1.633,1.324,2.958,2.957,2.958h9.858
	c1.633,0,2.958-1.325,2.958-2.958V3.071C15.887,1.438,14.562,0.113,12.929,0.113z M10.73,10.609
	c-0.176,0.378-0.412,0.695-0.709,0.952s-0.642,0.452-1.033,0.588c-0.392,0.135-0.804,0.202-1.235,0.202
	c-0.703,0-1.309-0.115-1.817-0.345s-0.938-0.52-1.29-0.871l1.026-1.459c0.262,0.234,0.536,0.428,0.824,0.581s0.59,0.229,0.905,0.229
	c0.405,0,0.718-0.09,0.938-0.271c0.221-0.18,0.331-0.459,0.331-0.837c0-0.369-0.108-0.646-0.324-0.831S7.852,8.272,7.51,8.272
	c-0.117,0-0.221,0.006-0.312,0.02c-0.09,0.014-0.178,0.034-0.263,0.062C6.85,8.38,6.758,8.421,6.658,8.475
	C6.56,8.528,6.446,8.596,6.32,8.677L5.321,8.029l0.216-4.404h5.078V5.57H7.536L7.429,6.813c0.152-0.055,0.29-0.091,0.412-0.108
	c0.121-0.018,0.254-0.027,0.398-0.027c0.368,0,0.72,0.055,1.054,0.162C9.625,6.948,9.918,7.11,10.17,7.326
	c0.252,0.217,0.453,0.491,0.602,0.824s0.223,0.725,0.223,1.175C10.994,9.803,10.906,10.23,10.73,10.609z"/>
</svg>
