<?xml version="1.0" encoding="utf-8"?>
<!-- Generator: Adobe Illustrator 16.0.0, SVG Export Plug-In . SVG Version: 6.00 Build 0)  -->
<!DOCTYPE svg PUBLIC "-//W3C//DTD SVG 1.1//EN" "http://www.w3.org/Graphics/SVG/1.1/DTD/svg11.dtd">
<svg version="1.1" id="Camada_1" xmlns="http://www.w3.org/2000/svg" xmlns:xlink="http://www.w3.org/1999/xlink" x="0px" y="0px"
	 width="16px" height="16px" viewBox="0 0 16 16" style="enable-background:new 0 0 16 16;" xml:space="preserve">
<style type="text/css">
<![CDATA[
	.st0{fill:#F5871F;}
]]>
</style>
<path class="st0" d="M12.93,0.113H3.071c-1.633,0-2.958,1.325-2.958,2.958v9.857c0,1.633,1.324,2.958,2.958,2.958h9.859
	c1.633,0,2.957-1.325,2.957-2.958V3.071C15.887,1.438,14.562,0.113,12.93,0.113z M11.051,12.189H4.836v-1.324
	c0.505-0.468,0.975-0.909,1.412-1.323C6.685,9.128,7.066,8.738,7.39,8.373c0.324-0.364,0.578-0.711,0.763-1.04
	C8.338,7.005,8.43,6.696,8.43,6.408c0-0.388-0.096-0.674-0.291-0.858C7.946,5.365,7.691,5.273,7.376,5.273
	c-0.288,0-0.543,0.083-0.764,0.25C6.392,5.689,6.178,5.877,5.971,6.084L4.729,4.841C4.954,4.606,5.174,4.401,5.39,4.227
	c0.216-0.176,0.443-0.32,0.683-0.433c0.238-0.112,0.49-0.196,0.757-0.25C7.094,3.49,7.385,3.463,7.701,3.463
	c0.432,0,0.829,0.067,1.188,0.203C9.25,3.801,9.561,3.99,9.822,4.233c0.26,0.243,0.463,0.538,0.607,0.885
	c0.143,0.347,0.215,0.731,0.215,1.154c0,0.343-0.074,0.691-0.223,1.047c-0.148,0.356-0.34,0.71-0.574,1.061
	C9.613,8.731,9.352,9.073,9.059,9.406c-0.293,0.334-0.584,0.648-0.872,0.946c0.215-0.027,0.46-0.052,0.737-0.074
	c0.273-0.022,0.506-0.034,0.695-0.034h1.432V12.189z"/>
</svg>
