<?xml version="1.0" encoding="utf-8"?>
<!-- Generator: Adobe Illustrator 16.0.0, SVG Export Plug-In . SVG Version: 6.00 Build 0)  -->
<!DOCTYPE svg PUBLIC "-//W3C//DTD SVG 1.1//EN" "http://www.w3.org/Graphics/SVG/1.1/DTD/svg11.dtd">
<svg version="1.1" id="Camada_1" xmlns="http://www.w3.org/2000/svg" xmlns:xlink="http://www.w3.org/1999/xlink" x="0px" y="0px"
	 width="16px" height="16px" viewBox="0 0 16 16" style="enable-background:new 0 0 16 16;" xml:space="preserve">
<style type="text/css">
<![CDATA[
	.st0{fill:#47B769;}
]]>
</style>
<g>
	<path class="st0" d="M7.957,6.286C7.84,6.538,7.718,6.795,7.592,7.057L6.809,8.515h1.459V7.543c0-0.145,0.002-0.305,0.008-0.48
		c0.004-0.175,0.01-0.353,0.02-0.533c0.008-0.18,0.018-0.357,0.027-0.533C8.33,5.82,8.34,5.66,8.35,5.517H8.295
		C8.188,5.777,8.074,6.034,7.957,6.286z"/>
	<path class="st0" d="M12.93,0.113H3.071c-1.634,0-2.958,1.325-2.958,2.958v9.857c0,1.633,1.324,2.958,2.958,2.958h9.858
		c1.633,0,2.957-1.325,2.957-2.958V3.071C15.887,1.438,14.562,0.113,12.93,0.113z M11.348,10.271H10.43v1.918H8.268v-1.918H4.62
		V8.65l2.918-5.025h2.892v4.89h0.918V10.271z"/>
</g>
</svg>
